<svg width="38" height="38" viewBox="0 0 38 38" fill="none" xmlns="http://www.w3.org/2000/svg">
<g clip-path="url(#clip0_8_2)" filter="url(#filter0_d_8_2)">
<path d="M33.9999 15.0917C33.9999 6.75543 27.2837 -0.0020752 18.9999 -0.0020752C10.7124 -0.000200195 3.99615 6.75543 3.99615 15.0936C3.99615 22.6254 9.4824 28.8692 16.6524 30.0017V19.4548H12.8462V15.0936H16.6562V11.7654C16.6562 7.98355 18.8968 5.8948 22.3224 5.8948C23.9649 5.8948 25.6805 6.18918 25.6805 6.18918V9.90168H23.7887C21.9268 9.90168 21.3455 11.0661 21.3455 12.2604V15.0917H25.5043L24.8405 19.4529H21.3437V29.9998C28.5137 28.8673 33.9999 22.6236 33.9999 15.0917Z" fill="black"/>
</g>
<defs>
<filter id="filter0_d_8_2" x="0" y="0" width="38" height="38" filterUnits="userSpaceOnUse" color-interpolation-filters="sRGB">
<feFlood flood-opacity="0" result="BackgroundImageFix"/>
<feColorMatrix in="SourceAlpha" type="matrix" values="0 0 0 0 0 0 0 0 0 0 0 0 0 0 0 0 0 0 127 0" result="hardAlpha"/>
<feOffset dy="4"/>
<feGaussianBlur stdDeviation="2"/>
<feComposite in2="hardAlpha" operator="out"/>
<feColorMatrix type="matrix" values="0 0 0 0 0 0 0 0 0 0 0 0 0 0 0 0 0 0 0.25 0"/>
<feBlend mode="normal" in2="BackgroundImageFix" result="effect1_dropShadow_8_2"/>
<feBlend mode="normal" in="SourceGraphic" in2="effect1_dropShadow_8_2" result="shape"/>
</filter>
<clipPath id="clip0_8_2">
<rect width="30" height="30" fill="white" transform="translate(4)"/>
</clipPath>
</defs>
</svg>
