<svg width="38" height="38" viewBox="0 0 38 38" fill="none" xmlns="http://www.w3.org/2000/svg">
<g clip-path="url(#clip0_8_4)" filter="url(#filter0_d_8_4)">
<path d="M19 0C14.9294 0 14.4175 0.01875 12.8181 0.09C11.2188 0.165 10.1294 0.41625 9.175 0.7875C8.17346 1.16311 7.26651 1.75387 6.51813 2.51813C5.75387 3.26651 5.16311 4.17346 4.7875 5.175C4.41625 6.1275 4.16313 7.21875 4.09 8.8125C4.01875 10.4156 4 10.9256 4 15.0019C4 19.0744 4.01875 19.5844 4.09 21.1838C4.165 22.7812 4.41625 23.8706 4.7875 24.825C5.17188 25.8112 5.68375 26.6475 6.51813 27.4819C7.35063 28.3162 8.18687 28.83 9.17313 29.2125C10.1294 29.5837 11.2169 29.8369 12.8144 29.91C14.4156 29.9812 14.9256 30 19 30C23.0744 30 23.5825 29.9812 25.1838 29.91C26.7794 29.835 27.8725 29.5837 28.8269 29.2125C29.8277 28.8366 30.734 28.2459 31.4819 27.4819C32.3162 26.6475 32.8281 25.8112 33.2125 24.825C33.5819 23.8706 33.835 22.7812 33.91 21.1838C33.9812 19.5844 34 19.0744 34 15C34 10.9256 33.9812 10.4156 33.91 8.81437C33.835 7.21875 33.5819 6.1275 33.2125 5.175C32.8369 4.17346 32.2461 3.26651 31.4819 2.51813C30.7335 1.75387 29.8265 1.16311 28.825 0.7875C27.8687 0.41625 26.7775 0.163125 25.1819 0.09C23.5806 0.01875 23.0725 0 18.9963 0H19ZM17.6556 2.70375H19.0019C23.0069 2.70375 23.4812 2.71688 25.0619 2.79C26.5244 2.85563 27.3194 3.10125 27.8481 3.30562C28.5475 3.5775 29.0481 3.90375 29.5731 4.42875C30.0981 4.95375 30.4225 5.4525 30.6944 6.15375C30.9006 6.68062 31.1444 7.47563 31.21 8.93813C31.2831 10.5188 31.2981 10.9931 31.2981 14.9963C31.2981 18.9994 31.2831 19.4756 31.21 21.0562C31.1444 22.5187 30.8988 23.3119 30.6944 23.8406C30.4522 24.4911 30.0686 25.0796 29.5712 25.5637C29.0462 26.0887 28.5475 26.4131 27.8463 26.685C27.3213 26.8913 26.5262 27.135 25.0619 27.2025C23.4812 27.2738 23.0069 27.2906 19.0019 27.2906C14.9969 27.2906 14.5206 27.2738 12.94 27.2025C11.4775 27.135 10.6844 26.8913 10.1556 26.685C9.50469 26.4436 8.9155 26.0606 8.43062 25.5637C7.93239 25.0793 7.54812 24.49 7.30562 23.8387C7.10125 23.3119 6.85563 22.5169 6.79 21.0544C6.71875 19.4738 6.70375 18.9994 6.70375 14.9925C6.70375 10.9856 6.71875 10.515 6.79 8.93437C6.8575 7.47187 7.10125 6.67688 7.3075 6.14813C7.57938 5.44875 7.90562 4.94812 8.43062 4.42312C8.95563 3.89812 9.45437 3.57375 10.1556 3.30188C10.6844 3.09563 11.4775 2.85188 12.94 2.78437C14.3238 2.72062 14.86 2.70188 17.6556 2.7V2.70375ZM27.0081 5.19375C26.7717 5.19375 26.5377 5.24031 26.3193 5.33077C26.1009 5.42123 25.9025 5.55381 25.7353 5.72096C25.5682 5.8881 25.4356 6.08653 25.3451 6.30492C25.2547 6.52331 25.2081 6.75737 25.2081 6.99375C25.2081 7.23013 25.2547 7.46419 25.3451 7.68258C25.4356 7.90097 25.5682 8.0994 25.7353 8.26654C25.9025 8.43369 26.1009 8.56627 26.3193 8.65673C26.5377 8.74719 26.7717 8.79375 27.0081 8.79375C27.4855 8.79375 27.9434 8.60411 28.2809 8.26654C28.6185 7.92898 28.8081 7.47114 28.8081 6.99375C28.8081 6.51636 28.6185 6.05852 28.2809 5.72096C27.9434 5.38339 27.4855 5.19375 27.0081 5.19375ZM19.0019 7.2975C17.9801 7.28156 16.9654 7.46904 16.0168 7.84901C15.0682 8.22899 14.2047 8.79388 13.4765 9.51079C12.7483 10.2277 12.1701 11.0823 11.7753 12.0249C11.3806 12.9674 11.1773 13.9791 11.1773 15.0009C11.1773 16.0228 11.3806 17.0345 11.7753 17.977C12.1701 18.9196 12.7483 19.7742 13.4765 20.4911C14.2047 21.208 15.0682 21.7729 16.0168 22.1529C16.9654 22.5328 17.9801 22.7203 19.0019 22.7044C21.0241 22.6728 22.9529 21.8473 24.3718 20.4061C25.7908 18.9649 26.5861 17.0234 26.5861 15.0009C26.5861 12.9784 25.7908 11.037 24.3718 9.59578C22.9529 8.15454 21.0241 7.32905 19.0019 7.2975ZM19.0019 9.99938C19.6586 9.99938 20.3088 10.1287 20.9155 10.38C21.5222 10.6313 22.0735 10.9997 22.5379 11.464C23.0022 11.9284 23.3705 12.4796 23.6219 13.0863C23.8732 13.693 24.0025 14.3433 24.0025 15C24.0025 15.6567 23.8732 16.307 23.6219 16.9137C23.3705 17.5204 23.0022 18.0716 22.5379 18.536C22.0735 19.0003 21.5222 19.3687 20.9155 19.62C20.3088 19.8713 19.6586 20.0006 19.0019 20.0006C17.6756 20.0006 16.4037 19.4738 15.4659 18.536C14.5281 17.5982 14.0013 16.3262 14.0013 15C14.0013 13.6738 14.5281 12.4018 15.4659 11.464C16.4037 10.5262 17.6756 9.99938 19.0019 9.99938Z" fill="black"/>
</g>
<defs>
<filter id="filter0_d_8_4" x="0" y="0" width="38" height="38" filterUnits="userSpaceOnUse" color-interpolation-filters="sRGB">
<feFlood flood-opacity="0" result="BackgroundImageFix"/>
<feColorMatrix in="SourceAlpha" type="matrix" values="0 0 0 0 0 0 0 0 0 0 0 0 0 0 0 0 0 0 127 0" result="hardAlpha"/>
<feOffset dy="4"/>
<feGaussianBlur stdDeviation="2"/>
<feComposite in2="hardAlpha" operator="out"/>
<feColorMatrix type="matrix" values="0 0 0 0 0 0 0 0 0 0 0 0 0 0 0 0 0 0 0.25 0"/>
<feBlend mode="normal" in2="BackgroundImageFix" result="effect1_dropShadow_8_4"/>
<feBlend mode="normal" in="SourceGraphic" in2="effect1_dropShadow_8_4" result="shape"/>
</filter>
<clipPath id="clip0_8_4">
<rect width="30" height="30" fill="white" transform="translate(4)"/>
</clipPath>
</defs>
</svg>
