<svg width="31" height="26" viewBox="0 0 31 26" fill="none" xmlns="http://www.w3.org/2000/svg">
<path fill-rule="evenodd" clip-rule="evenodd" d="M17.2088 0.411302C17.3388 0.280925 17.4933 0.177486 17.6634 0.106908C17.8335 0.0363296 18.0159 0 18.2 0C18.3841 0 18.5665 0.0363296 18.7366 0.106908C18.9067 0.177486 19.0612 0.280925 19.1912 0.411302L30.3912 11.6113C30.5216 11.7413 30.625 11.8958 30.6956 12.0659C30.7662 12.236 30.8025 12.4184 30.8025 12.6025C30.8025 12.7867 30.7662 12.969 30.6956 13.1391C30.625 13.3092 30.5216 13.4637 30.3912 13.5937L19.1912 24.7937C18.9283 25.0566 18.5718 25.2043 18.2 25.2043C17.8282 25.2043 17.4717 25.0566 17.2088 24.7937C16.9459 24.5308 16.7982 24.1743 16.7982 23.8025C16.7982 23.4307 16.9459 23.0742 17.2088 22.8113L26.0204 14.0025H1.4C1.0287 14.0025 0.672602 13.855 0.410051 13.5925C0.1475 13.3299 0 12.9738 0 12.6025C0 12.2312 0.1475 11.8751 0.410051 11.6126C0.672602 11.35 1.0287 11.2025 1.4 11.2025H26.0204L17.2088 2.3937C17.0784 2.26365 16.975 2.10916 16.9044 1.93908C16.8338 1.76899 16.7975 1.58665 16.7975 1.4025C16.7975 1.21835 16.8338 1.03601 16.9044 0.865928C16.975 0.695842 17.0784 0.54135 17.2088 0.411302Z" fill="black"/>
</svg>
