<svg width="38" height="38" viewBox="0 0 38 38" fill="none" xmlns="http://www.w3.org/2000/svg">
<g filter="url(#filter0_d_8_7)">
<path d="M29.6171 4.36134C28.2358 2.9729 26.5906 1.87218 24.7774 1.1234C22.9643 0.374618 21.0195 -0.00723902 19.0565 0.000103922C10.8314 0.000103922 4.12808 6.67133 4.12054 14.8613C4.12054 17.4844 4.80989 20.0363 6.11138 22.2957L4 30L11.9181 27.9338C14.1076 29.1229 16.5623 29.7451 19.0565 29.7431H19.064C27.2911 29.7431 33.9925 23.0719 34 14.8744C34.0017 12.9208 33.6151 10.9861 32.8626 9.18184C32.1101 7.37755 31.0083 5.73927 29.6171 4.36134ZM19.0565 27.2269C16.8324 27.2251 14.6496 26.6294 12.7356 25.5019L12.2835 25.2319L7.58614 26.4581L8.84053 21.8963L8.54671 21.4257C7.30325 19.4575 6.64562 17.1788 6.65005 14.8538C6.65005 8.05508 12.2195 2.50885 19.064 2.50885C20.6946 2.50593 22.3097 2.82436 23.8161 3.44576C25.3225 4.06717 26.6904 4.97926 27.841 6.12946C28.9954 7.27536 29.9106 8.63734 30.5338 10.1369C31.1571 11.6365 31.476 13.2441 31.4724 14.8669C31.4648 21.69 25.8954 27.2269 19.0565 27.2269ZM25.8653 17.9757C25.4942 17.79 23.6616 16.8919 23.3169 16.7644C22.9741 16.6425 22.7236 16.5788 22.4788 16.95C22.2283 17.3194 21.5126 18.1613 21.2978 18.4032C21.0831 18.6525 20.8609 18.6807 20.4879 18.4969C20.1169 18.3094 18.9134 17.9194 17.4895 16.65C16.3782 15.6657 15.6342 14.4469 15.412 14.0776C15.1973 13.7063 15.3913 13.5076 15.5777 13.3219C15.7416 13.1569 15.9488 12.8869 16.1352 12.6732C16.3236 12.4594 16.3857 12.3019 16.5082 12.0544C16.6306 11.8032 16.5722 11.5894 16.4799 11.4038C16.3857 11.2182 15.6418 9.38632 15.3272 8.64757C15.0259 7.9182 14.7189 8.01945 14.4891 8.01008C14.2744 7.99695 14.0239 7.99695 13.7734 7.99695C13.5842 8.00174 13.3981 8.04535 13.2266 8.12504C13.0552 8.20473 12.9021 8.31879 12.777 8.46007C12.4342 8.83132 11.4755 9.72945 11.4755 11.5613C11.4755 13.3932 12.8128 15.1538 13.0011 15.4032C13.1857 15.6526 15.6267 19.4007 19.3729 21.0132C20.2582 21.3975 20.955 21.6244 21.4994 21.7969C22.394 22.0819 23.202 22.0388 23.8462 21.9469C24.5619 21.8382 26.0517 21.0469 26.3663 20.1788C26.6752 19.3088 26.6752 18.5663 26.581 18.4107C26.4887 18.2532 26.2382 18.1613 25.8653 17.9757Z" fill="black"/>
</g>
<defs>
<filter id="filter0_d_8_7" x="0" y="0" width="38" height="38" filterUnits="userSpaceOnUse" color-interpolation-filters="sRGB">
<feFlood flood-opacity="0" result="BackgroundImageFix"/>
<feColorMatrix in="SourceAlpha" type="matrix" values="0 0 0 0 0 0 0 0 0 0 0 0 0 0 0 0 0 0 127 0" result="hardAlpha"/>
<feOffset dy="4"/>
<feGaussianBlur stdDeviation="2"/>
<feComposite in2="hardAlpha" operator="out"/>
<feColorMatrix type="matrix" values="0 0 0 0 0 0 0 0 0 0 0 0 0 0 0 0 0 0 0.25 0"/>
<feBlend mode="normal" in2="BackgroundImageFix" result="effect1_dropShadow_8_7"/>
<feBlend mode="normal" in="SourceGraphic" in2="effect1_dropShadow_8_7" result="shape"/>
</filter>
</defs>
</svg>
